<svg width="239" height="26" viewBox="0 0 239 26" fill="none" xmlns="http://www.w3.org/2000/svg">
<g clip-path="url(#clip0_15_1645)">
<path d="M1.94358 0.398438C2.13747 0.398438 2.2852 0.458687 2.39139 0.579186C2.49757 0.699685 2.55297 0.843357 2.55297 1.01484V25.1008C2.55297 25.2676 2.49757 25.4159 2.39139 25.5364C2.2852 25.6569 2.13286 25.7172 1.94358 25.7172H0.64632C0.452424 25.7172 0.295461 25.6569 0.180046 25.5364C0.0600155 25.4159 0 25.2722 0 25.1008V1.01484C0 0.847992 0.0600155 0.699685 0.180046 0.579186C0.300077 0.458687 0.457041 0.398438 0.64632 0.398438H1.94358Z" fill="white"/>
<path d="M31.8775 0.398438C32.0714 0.398438 32.2192 0.458687 32.3253 0.579186C32.4315 0.699685 32.4869 0.843357 32.4869 1.01484V25.1332C32.4869 25.3 32.4269 25.4391 32.3069 25.5503C32.1868 25.6569 32.0437 25.7125 31.8729 25.7125H30.3587C30.0725 25.7125 29.7816 25.5086 29.4954 25.0961L15.8119 5.64015C15.738 5.51965 15.6457 5.4594 15.5256 5.4594C15.3317 5.4594 15.2394 5.5799 15.2394 5.8209V25.0961C15.2394 25.263 15.184 25.4113 15.0778 25.5318C14.9716 25.6523 14.8193 25.7125 14.63 25.7125H13.3328C13.1666 25.7125 13.0188 25.6569 12.8988 25.5503C12.7788 25.4437 12.7188 25.2908 12.7188 25.1008V0.97776C12.7649 0.59309 12.9588 0.398438 13.2958 0.398438H14.847C15.0409 0.398438 15.1932 0.458687 15.3133 0.579186C15.4333 0.699685 15.5533 0.857261 15.6734 1.04728L29.3984 20.5033C29.4723 20.6238 29.5646 20.684 29.6847 20.684C29.8786 20.684 29.9709 20.5496 29.9709 20.2854V1.01484C29.9709 0.847992 30.0263 0.699685 30.1325 0.579186C30.2386 0.458687 30.391 0.398438 30.5803 0.398438H31.8775Z" fill="white"/>
<path d="M61.9906 18.6219C62.1845 20.3553 61.6675 21.8522 60.4395 23.1082C59.5762 24.0259 58.4359 24.7257 57.0186 25.2077C55.6013 25.6897 53.9809 25.9307 52.1573 25.9307C51.2709 25.9307 50.3569 25.8751 49.4197 25.7685C48.4825 25.6619 47.5777 25.4626 46.7005 25.1706C45.8234 24.8833 45.0109 24.4801 44.2676 23.961C43.5243 23.4419 42.8965 22.7838 42.3933 21.9913C42.3194 21.8476 42.3102 21.7039 42.3563 21.5556C42.4025 21.412 42.4902 21.2915 42.6103 21.1941L43.7644 20.5453C43.8383 20.499 43.9306 20.4711 44.0506 20.4711C44.2907 20.4711 44.5169 20.6148 44.7339 20.9068C45.1171 21.4398 45.6018 21.8615 46.1927 22.172C46.779 22.4872 47.4115 22.7328 48.0855 22.9136C48.7595 23.0943 49.4474 23.2148 50.1584 23.2751C50.8647 23.3353 51.5341 23.3631 52.1573 23.3631C53.5977 23.3631 54.8765 23.187 55.9937 22.8394C57.1109 22.4918 57.9788 21.9913 58.6067 21.3378C59.3038 20.638 59.59 19.8177 59.47 18.8768C59.4192 18.3717 59.2899 17.8943 59.073 17.4494C58.856 17.0045 58.482 16.5874 57.9557 16.2027C57.4248 15.818 56.7139 15.4751 55.8137 15.1738C54.9134 14.8726 53.7547 14.6038 52.3374 14.3581C52.2635 14.3581 52.1112 14.335 51.8711 14.284C51.7511 14.284 51.631 14.2701 51.511 14.2469C50.5277 14.0801 49.5213 13.8576 48.5056 13.5795C47.4854 13.3014 46.5482 12.9121 45.6941 12.4023C44.8401 11.8925 44.1199 11.253 43.5336 10.4697C42.9426 9.68647 42.5918 8.70394 42.4718 7.52212C42.2779 5.66829 42.8088 4.09717 44.0552 2.82266C44.8724 1.97916 45.9388 1.33496 47.2591 0.890036C48.5795 0.445116 50.103 0.222656 51.8342 0.222656C52.6975 0.222656 53.5885 0.278271 54.4979 0.384867C55.412 0.491462 56.2984 0.686114 57.1617 0.964189C58.025 1.24226 58.8283 1.6223 59.5762 2.1043C60.3194 2.58629 60.9565 3.21196 61.4874 3.98594C61.5336 4.10644 61.5336 4.24547 61.4874 4.40305C61.4366 4.56062 61.3535 4.67185 61.2335 4.74601L60.0794 5.43193C60.0055 5.47827 59.8993 5.50608 59.7562 5.50608C59.6131 5.50608 59.4561 5.44583 59.2899 5.32533C58.9068 4.76918 58.4174 4.3289 57.8311 4.00447C57.2402 3.68005 56.6077 3.42052 55.9198 3.22586C55.2366 3.03121 54.5395 2.90608 53.8285 2.84583C53.1222 2.78558 52.4528 2.75314 51.8295 2.75314C50.4584 2.75314 49.2674 2.91071 48.2471 3.22123C47.2268 3.53638 46.442 3.99057 45.888 4.59307C45.1909 5.31606 44.9047 6.21054 45.0247 7.26722C45.0709 7.77239 45.2048 8.24975 45.4217 8.69467C45.6387 9.13959 46.0081 9.55207 46.539 9.92283C47.0652 10.2982 47.7854 10.6412 48.6995 10.9517C49.6136 11.2669 50.7631 11.531 52.1573 11.7489C52.2312 11.7489 52.3835 11.772 52.6236 11.823C52.7436 11.8462 52.8637 11.874 52.9837 11.8972C53.967 12.064 54.9688 12.2911 55.9891 12.5645C57.0093 12.8426 57.9419 13.2319 58.7821 13.7417C59.6223 14.2469 60.3379 14.8911 60.9242 15.6743C61.5105 16.4576 61.866 17.4401 61.986 18.6219H61.9906Z" fill="white"/>
<path d="M89.2252 0.399166C89.3914 0.422339 89.5391 0.491857 89.6592 0.598453C89.7792 0.705048 89.8392 0.844086 89.8392 1.01557V2.31788C89.8392 2.51253 89.7792 2.66084 89.6592 2.76744C89.5391 2.87403 89.396 2.92965 89.2252 2.92965H81.6263C81.4601 2.95282 81.3124 3.02697 81.1924 3.14747C81.0723 3.26797 81.0123 3.41164 81.0123 3.58312V25.1015C80.9892 25.2683 80.9246 25.4166 80.8138 25.5371C80.7076 25.6576 80.5691 25.7179 80.3983 25.7179H79.101C78.9072 25.7179 78.7594 25.6576 78.6486 25.5371C78.5424 25.4166 78.487 25.2591 78.487 25.069V3.58312C78.487 3.41628 78.427 3.26797 78.307 3.14747C78.187 3.02697 78.03 2.95282 77.8407 2.92965H70.2742C69.8633 2.92965 69.6602 2.72573 69.6602 2.31325V1.01093C69.6602 0.649433 69.8633 0.445512 70.2742 0.394531H89.2206L89.2252 0.399166Z" fill="white"/>
<path d="M139.291 23.1774C139.697 23.1774 139.905 23.3813 139.905 23.7938V25.0961C139.905 25.263 139.849 25.4113 139.743 25.5318C139.637 25.6523 139.499 25.7125 139.328 25.7125H124.305C124.139 25.7125 123.991 25.6523 123.871 25.5318C123.751 25.4113 123.691 25.2676 123.691 25.0961V0.97776C123.691 0.59309 123.858 0.398438 124.195 0.398438H125.709C125.903 0.398438 126.037 0.458687 126.124 0.579186C126.207 0.699685 126.249 0.834088 126.249 0.97776V22.4961C126.249 22.904 126.452 23.1357 126.863 23.182H139.291V23.1774Z" fill="white"/>
<path d="M164.004 23.1774C164.41 23.1774 164.618 23.3813 164.618 23.7938V25.0961C164.618 25.263 164.562 25.4113 164.456 25.5318C164.35 25.6523 164.211 25.7125 164.041 25.7125H149.018C148.852 25.7125 148.704 25.6523 148.584 25.5318C148.464 25.4113 148.404 25.2676 148.404 25.0961V0.97776C148.404 0.59309 148.57 0.398438 148.908 0.398438H150.422C150.616 0.398438 150.75 0.458687 150.837 0.579186C150.92 0.699685 150.962 0.834088 150.962 0.97776V22.4961C150.962 22.904 151.165 23.1357 151.576 23.182H164.004V23.1774Z" fill="white"/>
<path d="M174.848 0.398438C175.042 0.398438 175.19 0.458687 175.3 0.579186C175.406 0.699685 175.462 0.843357 175.462 1.01484V25.1008C175.462 25.2676 175.406 25.4159 175.3 25.5364C175.19 25.6569 175.042 25.7172 174.848 25.7172H173.551C173.357 25.7172 173.2 25.6569 173.084 25.5364C172.964 25.4159 172.904 25.2722 172.904 25.1008V1.01484C172.904 0.847992 172.964 0.699685 173.084 0.579186C173.204 0.458687 173.361 0.398438 173.551 0.398438H174.848Z" fill="white"/>
<path d="M197.501 0C199.279 0 200.954 0.342959 202.529 1.02888C204.103 1.7148 205.474 2.64635 206.651 3.81426C207.828 4.98217 208.752 6.35865 209.426 7.9344C210.1 9.5148 210.432 11.2064 210.432 13.0139C210.432 14.8214 210.095 16.4806 209.426 18.0563C208.752 19.6367 207.828 21.0086 206.651 22.1765C205.474 23.3444 204.098 24.2759 202.529 24.9619C200.954 25.6478 199.279 25.9907 197.501 25.9907C195.724 25.9907 194.011 25.6478 192.441 24.9619C190.867 24.2759 189.501 23.349 188.333 22.1765C187.169 21.0086 186.246 19.6321 185.558 18.0563C184.875 16.4759 184.533 14.7982 184.533 13.0139C184.533 11.2296 184.875 9.51016 185.558 7.9344C186.241 6.35401 187.169 4.98217 188.333 3.81426C189.496 2.64635 190.867 1.7148 192.441 1.02888C194.016 0.342959 195.701 0 197.501 0ZM197.501 23.4695C198.942 23.4695 200.294 23.1914 201.555 22.6353C202.815 22.0791 203.914 21.333 204.851 20.3922C205.788 19.4513 206.531 18.3483 207.085 17.0831C207.639 15.8178 207.912 14.4599 207.912 13.0139C207.912 11.5679 207.635 10.2053 207.085 8.9262C206.531 7.64706 205.788 6.53939 204.851 5.59857C203.914 4.65775 202.815 3.91159 201.555 3.35544C200.294 2.79929 198.942 2.52585 197.501 2.52585C196.061 2.52585 194.704 2.80392 193.429 3.35544C192.155 3.91159 191.052 4.65775 190.115 5.59857C189.177 6.53939 188.434 7.64706 187.88 8.9262C187.326 10.2053 187.054 11.5679 187.054 13.0139C187.054 14.4599 187.331 15.8178 187.88 17.0831C188.434 18.3483 189.177 19.4513 190.115 20.3922C191.052 21.333 192.155 22.0791 193.429 22.6353C194.704 23.1914 196.061 23.4695 197.501 23.4695Z" fill="white"/>
<path d="M238.387 0.398438C238.581 0.398438 238.728 0.458687 238.835 0.579186C238.945 0.699685 238.996 0.843357 238.996 1.01484V25.1332C238.996 25.3 238.936 25.4391 238.816 25.5503C238.696 25.6569 238.553 25.7125 238.382 25.7125H236.868C236.582 25.7125 236.291 25.5086 236.005 25.0961L222.316 5.64015C222.243 5.51965 222.146 5.4594 222.03 5.4594C221.836 5.4594 221.744 5.5799 221.744 5.8209V25.0961C221.744 25.263 221.689 25.4113 221.582 25.5318C221.472 25.6523 221.324 25.7125 221.13 25.7125H219.833C219.662 25.7125 219.519 25.6569 219.399 25.5503C219.279 25.4437 219.219 25.2908 219.219 25.1008V0.97776C219.265 0.59309 219.459 0.398438 219.796 0.398438H221.342C221.536 0.398438 221.689 0.458687 221.809 0.579186C221.929 0.699685 222.049 0.857261 222.169 1.04728L235.894 20.5033C235.968 20.6238 236.06 20.684 236.18 20.684C236.374 20.684 236.466 20.5496 236.466 20.2854V1.01484C236.466 0.847992 236.522 0.699685 236.628 0.579186C236.739 0.458687 236.886 0.398438 237.076 0.398438H238.373H238.387Z" fill="white"/>
<path opacity="0.9" d="M91.168 25.712L103.176 0.078125L108.175 10.6496L91.168 25.712Z" fill="#1072BA"/>
<path opacity="0.9" d="M115.294 25.712L103.176 0.078125L98.1992 10.7052L115.294 25.712Z" fill="#2ED3AE"/>
</g>
<defs>
<clipPath id="clip0_15_1645">
<rect width="239" height="26" fill="white"/>
</clipPath>
</defs>
</svg>
